<svg xmlns="http://www.w3.org/2000/svg" width="64" height="64" viewBox="0 0 64 64">
  <g id="history_icon" transform="translate(-159 -1286)">
    <rect id="Rectangle_5" data-name="Rectangle 5" width="64" height="64" transform="translate(159 1286)" fill="none"/>
    <g id="history-2-svgrepo-com" transform="translate(165.75 1292.75)">
      <path id="Path_1" data-name="Path 1" d="M23.68,2.932A1.682,1.682,0,0,1,25.362,1.25,24.112,24.112,0,1,1,1.25,25.362a1.682,1.682,0,0,1,3.364,0A20.748,20.748,0,1,0,25.362,4.614,1.682,1.682,0,0,1,23.68,2.932Z" fill="#1c274c" fill-rule="evenodd"/>
      <path id="Path_2" data-name="Path 2" d="M18.028,2.995a1.682,1.682,0,0,1-.964,2.175q-.476.184-.94.39a1.682,1.682,0,0,1-1.365-3.075q.54-.24,1.094-.454A1.682,1.682,0,0,1,18.028,2.995ZM10.285,7.128a1.682,1.682,0,0,1-.058,2.378q-.369.351-.72.72A1.682,1.682,0,1,1,7.07,7.907q.408-.428.837-.837A1.682,1.682,0,0,1,10.285,7.128ZM4.7,13.9a1.682,1.682,0,0,1,.855,2.22q-.206.464-.39.94a1.682,1.682,0,0,1-3.139-1.212q.214-.554.454-1.094A1.682,1.682,0,0,1,4.7,13.9Z" transform="translate(0.83 0.83)" fill="#00bcf2" fill-rule="evenodd"/>
      <path id="Path_3" data-name="Path 3" d="M12.932,8.25a1.682,1.682,0,0,1,1.682,1.682v7.29H21.9a1.682,1.682,0,0,1,0,3.364H12.932A1.682,1.682,0,0,1,11.25,18.9V9.932A1.682,1.682,0,0,1,12.932,8.25Z" transform="translate(12.43 8.701)" fill="#00bcf2"/>
    </g>
  </g>
</svg>
