<svg xmlns="http://www.w3.org/2000/svg" width="64" height="64" viewBox="0 0 64 64">
  <g id="japur_ho_icon" transform="translate(-437 -832)">
    <rect id="Rectangle_4" data-name="Rectangle 4" width="64" height="64" transform="translate(437 832)" fill="none"/>
    <g id="buildings-3-svgrepo-com" transform="translate(442 837)">
      <path id="Path_19" data-name="Path 19" d="M52,22H2" transform="translate(0 30)" fill="none" stroke="#1c274c" stroke-linecap="round" stroke-width="3"/>
      <path id="Path_20" data-name="Path 20" d="M31.9,52V12c0-4.714,0-7.071-1.458-8.536S26.632,2,21.938,2H16.958c-4.694,0-7.042,0-8.5,1.464S7,7.286,7,12V52" transform="translate(7.552 0)" fill="none" stroke="#1c274c" stroke-width="3"/>
      <path id="Path_21" data-name="Path 21" d="M26.214,47.531V13.756c0-3.514,0-5.271-.839-6.533A4.99,4.99,0,0,0,24,5.843C22.745,5,21,5,17.5,5" transform="translate(23.297 4.469)" fill="none" stroke="#1c274c" stroke-width="3"/>
      <path id="Path_22" data-name="Path 22" d="M3,47.531V13.756c0-3.514,0-5.271.839-6.533A4.992,4.992,0,0,1,5.213,5.843C6.469,5,8.217,5,11.714,5" transform="translate(1.49 4.469)" fill="none" stroke="#1c274c" stroke-width="3"/>
      <path id="Path_23" data-name="Path 23" d="M12,26.469V19" transform="translate(15 25.531)" fill="none" stroke="#1c274c" stroke-linecap="round" stroke-width="3"/>
      <path id="Path_24" data-name="Path 24" d="M10,12h9.958" transform="translate(12.021 15)" fill="none" stroke="#1c274c" stroke-linecap="round" stroke-width="3"/>
      <path id="Path_25" data-name="Path 25" d="M5.5,11H9.234" transform="translate(5.253 13.5)" fill="none" stroke="#1c274c" stroke-linecap="round" stroke-width="3"/>
      <path id="Path_26" data-name="Path 26" d="M5.5,14H9.234" transform="translate(5.253 18)" fill="none" stroke="#1c274c" stroke-linecap="round" stroke-width="3"/>
      <path id="Path_27" data-name="Path 27" d="M17,11h3.734" transform="translate(22.513 13.5)" fill="none" stroke="#1c274c" stroke-linecap="round" stroke-width="3"/>
      <path id="Path_28" data-name="Path 28" d="M17,14h3.734" transform="translate(22.513 18)" fill="none" stroke="#1c274c" stroke-linecap="round" stroke-width="3"/>
      <path id="Path_29" data-name="Path 29" d="M5.5,8H9.234" transform="translate(5.253 9)" fill="none" stroke="#1c274c" stroke-linecap="round" stroke-width="3"/>
      <path id="Path_30" data-name="Path 30" d="M17,8h3.734" transform="translate(22.513 9)" fill="none" stroke="#1c274c" stroke-linecap="round" stroke-width="3"/>
      <path id="Path_31" data-name="Path 31" d="M10,15h9.958" transform="translate(12.021 19.5)" fill="none" stroke="#1c274c" stroke-linecap="round" stroke-width="3"/>
      <circle id="Ellipse_2" data-name="Ellipse 2" cx="4.881" cy="4.881" r="4.881" transform="translate(22.119 9)" fill="#00bcf2" stroke="#1c274c" stroke-width="3"/>
    </g>
  </g>
</svg>
