<svg xmlns="http://www.w3.org/2000/svg" width="64" height="64" viewBox="0 0 64 64">
  <g id="sales_executive_icon" transform="translate(-435 -833)">
    <rect id="Rectangle_2" data-name="Rectangle 2" width="64" height="64" transform="translate(435 833)" fill="none"/>
    <g id="Group_4" data-name="Group 4" transform="translate(-0.5 0.5)">
      <circle id="Ellipse_3" data-name="Ellipse 3" cx="9" cy="9" r="9" transform="translate(458 837)" fill="#00bcf2"/>
      <path id="salesman-management" d="M210.2,26.186h-2.784l-1.334-1.334-1.726-1.729a12.559,12.559,0,1,0-.031,0l-1.728,1.732-1.338,1.334h-2.778a14.96,14.96,0,0,0-14.959,14.965V60.688h41.633V41.151A14.964,14.964,0,0,0,210.2,26.186Zm-2.942,22.279-2.918,2.927-2.919-2.927,2.29-16.662-2.29-2.287,2.919-2.924,2.918,2.924L204.968,31.8Zm-12.011-36.9a9.094,9.094,0,1,1,9.093,9.095A9.1,9.1,0,0,1,195.244,11.568ZM222.686,58.22h-5.812V40.477h-2.466V58.22H194.029V40.477h-2.463V58.22h-5.585V41.151a12.512,12.512,0,0,1,12.5-12.5h.316l-.863.862,1.743,1.739,1.425,1.423-2.122,15.455-.169,1.213.866.869L202.6,53.13l1.743,1.747,1.742-1.747L209,50.216l.864-.869-.165-1.212L207.569,32.68l1.425-1.423,1.742-1.739-.86-.864h.321a12.509,12.509,0,0,1,12.489,12.5V58.22Z" transform="translate(262.982 834.49)" fill="#1c274c" stroke="#1c274c" stroke-width="1"/>
    </g>
  </g>
</svg>
