<svg xmlns="http://www.w3.org/2000/svg" width="64" height="64" viewBox="0 0 64 64">
  <g id="zonal_head_icon" transform="translate(-437 -834)">
    <rect id="Rectangle_3" data-name="Rectangle 3" width="64" height="64" transform="translate(437 834)" fill="none"/>
    <g id="Group_5" data-name="Group 5" transform="translate(-0.408 3.381)">
      <circle id="Ellipse_4" data-name="Ellipse 4" cx="7" cy="7" r="7" transform="translate(463 838)" fill="#00bcf2"/>
      <path id="boss-svgrepo-com" d="M60.83,62.718h-9.9l2.709-24.589A7.894,7.894,0,0,0,45.8,29.371H39.309a8.333,8.333,0,0,0-16.014,0H16.808a7.894,7.894,0,0,0-7.847,8.759L11.67,62.718h-9.9A1.774,1.774,0,0,0,0,64.492v9.843a1.774,1.774,0,0,0,1.774,1.774H60.83A1.774,1.774,0,0,0,62.6,74.334V64.492A1.774,1.774,0,0,0,60.83,62.718ZM31.3,26.895a4.788,4.788,0,1,1-4.788,4.788A4.793,4.793,0,0,1,31.3,26.895ZM12.487,37.741a4.347,4.347,0,0,1,4.32-4.823h6.251a8.336,8.336,0,0,0,16.487,0H45.8a4.347,4.347,0,0,1,4.32,4.823L47.365,62.718H46.2V50.57a8.243,8.243,0,0,0-5.644-7.83L38.2,42.017a1.773,1.773,0,0,0-2.187,1.088l-2.4,6.584s-.588-2.612-.591-2.625L34.446,44.6a1.774,1.774,0,0,0-1.536-2.661H29.7A1.774,1.774,0,0,0,28.159,44.6l1.423,2.465c0,.013-.591,2.625-.591,2.625l-2.4-6.584A1.773,1.773,0,0,0,24.4,42.017l-2.356.723a8.243,8.243,0,0,0-5.644,7.83V62.718H15.24ZM38.769,45.9l.683.21a4.7,4.7,0,0,1,3.2,4.458V62.718H33.039L38.769,45.9Zm-9.2,16.816H19.952V50.57a4.7,4.7,0,0,1,3.2-4.458l.683-.21Zm29.492,9.843H3.548v-6.3H59.056Z" transform="translate(438.408 813.272)" fill="#1c274c"/>
    </g>
  </g>
</svg>
